<svg xmlns="http://www.w3.org/2000/svg" viewBox="0 0 16 16"><defs><style>.a{fill:none;}.b{fill:#6c7abf;}</style></defs><g transform="translate(-236 -2348)"><rect class="a" width="16" height="16" transform="translate(236 2348)"/><path class="b" d="M0,6.633H2.667v8H0Zm5.333,0L8.2,3.767,7.333,7.3h6V8.633l-2,4.667h-6Zm0,8h6a1.317,1.317,0,0,0,1.2-.8l2-4.733a1.135,1.135,0,0,0,.067-.467V7.3a1.337,1.337,0,0,0-1.333-1.333h-4.2L9.733,2.9V2.7a1.4,1.4,0,0,0-.267-.733L8.733,1.3,4.4,5.7a1.316,1.316,0,0,0-.4.933V13.3A1.337,1.337,0,0,0,5.333,14.633Z" transform="translate(236.667 2348.233)"/></g></svg>