<svg xmlns="http://www.w3.org/2000/svg" viewBox="0 0 12 12"><defs><style>.a{opacity:0.5;}.b{fill:none;}</style></defs><g class="a" transform="translate(-236 -1868)"><rect class="b" width="11.408" height="11.408" transform="translate(236 1868)"/><path d="M100.915,48.193a.682.682,0,0,1,1.044,0,.85.85,0,0,1,.2.756l-.447,2.485h2.784a1.63,1.63,0,0,1,1.392,2.269l-1.641,4.106a.985.985,0,0,1-.895.648H98.877a1.043,1.043,0,0,1-.994-1.081v-5.4a1.114,1.114,0,0,1,.3-.756ZM95.894,58.459a1.043,1.043,0,0,1-.994-1.081V53.056a1,1,0,1,1,1.989,0v4.322A1.043,1.043,0,0,1,95.894,58.459Z" transform="translate(142 1821.541)"/></g></svg>