<svg xmlns="http://www.w3.org/2000/svg" viewBox="0 0 14 14"><defs><style>.a{fill:none;}</style></defs><g transform="translate(-428 -2348)"><rect class="a" width="14" height="14" transform="translate(428 2348)"/><path d="M4.083,0A4.058,4.058,0,0,0,0,4.083c0,3.033,4.083,7.583,4.083,7.583s4.083-4.55,4.083-7.583A4.058,4.058,0,0,0,4.083,0ZM1.167,4.083A2.888,2.888,0,0,1,4.083,1.167,2.888,2.888,0,0,1,7,4.083c0,1.692-1.692,4.2-2.917,5.775C2.858,8.283,1.167,5.717,1.167,4.083Zm4.375,0A1.458,1.458,0,1,1,4.083,2.625,1.444,1.444,0,0,1,5.542,4.083Z" transform="translate(430.917 2349.167)"/></g></svg>