<svg xmlns="http://www.w3.org/2000/svg" viewBox="0 0 26.48 26.491"><defs><style>.a{fill:none;}.b{fill-rule:evenodd;}</style></defs><g transform="translate(-284 -2300)"><rect class="a" width="24" height="24" transform="translate(284 2300)"/><path class="b" d="M924.784-1400.227h-1.066l-.37-.368a8.691,8.691,0,0,0,2.1-5.676,8.728,8.728,0,0,0-8.726-8.73,8.728,8.728,0,0,0-8.726,8.73,8.728,8.728,0,0,0,8.726,8.73,8.684,8.684,0,0,0,5.672-2.1l.371.368v1.064l6.71,6.7,2-2-6.7-6.715Zm-8.058,0a6.041,6.041,0,0,1-6.041-6.044,6.042,6.042,0,0,1,6.041-6.044,6.043,6.043,0,0,1,6.041,6.044,6.042,6.042,0,0,1-6.041,6.044Z" transform="translate(-621 3718)"/></g></svg>